<svg
  version="1.1"
  id="logo-sincea"
  width="500"
  height="500"
  viewBox="0 0 500 500"
  xmlns="http://www.w3.org/2000/svg"
  role="img"
  aria-labelledby="logo-sincea-title">

  <title id="logo-sincea-title">Logo SINCEA</title>

  <g id="g1">
    <path
      id="path1"
      fill="currentColor"
      d="m 252.76226,462.34938 c -3.13259,-1.82507 -3.77564,-4.61645 -6.2313,-27.04931 -2.13059,-19.46333 -2.25493,-22.51055 -1.01627,-24.90586 0.77624,-1.50108 2.07297,-2.98312 2.88163,-3.29343 2.73544,-1.04969 30.07222,-3.82173 34.50371,-3.4988 5.473,0.39883 7.67341,3.14226 8.44973,10.53496 l 0.54756,5.21432 -3.19866,0.48166 C 277.86453,421.46436 278,421.47708 278,418.82836 c 0,-1.35768 -0.60503,-2.70068 -1.34451,-2.98445 -1.54611,-0.5933 -16.52384,1.11372 -17.39233,1.98222 -0.77093,0.77093 2.53748,31.80005 3.49082,32.73996 0.74425,0.73376 15.85954,-0.78658 17.42225,-1.75238 0.45307,-0.28002 0.82377,-1.59899 0.82377,-2.93105 0,-2.57654 0.81474,-2.93252 8.68298,-3.79384 4.89851,-0.53624 5.31702,0.0693 5.31702,7.69308 0,6.04557 -1.82515,9.23676 -5.75124,10.05576 -3.51926,0.73414 -29.7497,3.5947 -32.59414,3.55455 -1.18504,-0.0167 -2.9366,-0.486 -3.89236,-1.04283 z m -47.3286,-2.63873 -5.06634,-1.47916 -1.74301,-6.65444 c -4.75836,-18.1663 -7.93217,-29.1799 -8.30221,-28.80986 -0.2257,0.22569 -2.13024,7.00524 -4.23233,15.06566 -2.10209,8.06042 -4.00718,14.84052 -4.23355,15.06688 C 181.1529,453.60306 169,450.22569 169,449.3269 c 0,-1.30771 13.99296,-54.23057 14.463,-54.70061 0.22771,-0.22771 3.24396,0.43104 6.70278,1.46389 l 6.28876,1.8779 1.72418,5.97727 c 0.9483,3.2875 3.15623,11.27957 4.90651,17.76016 1.75027,6.4806 3.38555,11.57966 3.63395,11.33126 0.32233,-0.32233 8.24524,-29.2566 8.27709,-30.22774 0.027,-0.82413 13.00373,3.32251 13.00373,4.15527 0,0.99615 -12.07241,47.81273 -13.59169,52.70832 -0.63405,2.04311 -2.08592,2.04926 -8.97465,0.038 z m 111.31126,-36.78505 -12.73684,-25.49701 18.98596,-9.50299 c 10.44228,-5.22664 19.20788,-9.50298 19.47912,-9.50298 0.27123,0 1.63047,2.2444 3.02054,4.98756 l 2.52739,4.98756 -13.01055,6.5196 C 327.85475,398.50311 322,401.67664 322,401.96961 c 0,0.51047 3.95484,8.61978 4.51865,9.26541 0.15005,0.17182 4.41666,-1.76876 9.48135,-4.3124 5.06469,-2.54364 9.3313,-4.48422 9.48135,-4.3124 0.89165,1.02103 4.51865,8.91728 4.51865,9.83743 0,0.60759 -3.9375,2.93592 -8.75,5.17406 -4.8125,2.23815 -8.89275,4.18921 -9.06723,4.3357 -0.17448,0.14649 0.84537,2.56063 2.26632,5.36475 l 2.58356,5.09841 12.96735,-6.49795 12.96735,-6.49795 2.58356,5.09841 c 1.42095,2.80412 2.4408,5.22813 2.26632,5.38667 -0.80497,0.73147 -36.88652,18.51287 -37.56582,18.51287 -0.4233,0 -6.50122,-11.47366 -13.50649,-25.49702 z M 132.25,431.14789 c -2.8875,-1.76401 -5.25,-3.52449 -5.25,-3.91219 0,-0.38769 6.57427,-11.54312 14.60949,-24.78984 l 14.60949,-24.08495 4.64051,2.65806 c 2.55228,1.46193 5.16579,3.16332 5.8078,3.78086 0.88077,0.8472 -2.43287,7.07344 -13.5,25.36619 -8.06701,13.33387 -14.89229,24.2312 -15.16729,24.21628 -0.275,-0.0149 -2.8625,-1.4704 -5.75,-3.23441 z m 258.4512,-23.47527 c -1.27814,-2.0625 -8.08443,-13.28441 -15.12509,-24.93757 l -12.8012,-21.18757 2.03606,-2.81243 c 1.11984,-1.54684 4.70479,-5.43334 7.96657,-8.63667 l 5.9305,-5.82424 26.12082,13.32424 c 14.36644,7.32833 26.11197,13.54924 26.10116,13.82424 -0.0108,0.275 -2.00999,2.72121 -4.44263,5.43602 l -4.42298,4.93602 -5.06496,-2.3723 -5.06497,-2.3723 -6.0398,5.93628 c -8.38069,8.23704 -8.54232,8.65544 -5.40915,14.0018 l 2.61302,4.45879 -4.20581,4.98784 c -2.3132,2.74332 -4.57973,4.98785 -5.03673,4.98785 -0.45701,0 -1.87667,-1.6875 -3.15481,-3.75 z m 9.27823,-36.27202 c 0.0113,-0.28711 -4.72404,-2.88168 -10.52301,-5.7657 -11.88085,-5.90874 -11.59954,-6.60253 -3.13529,7.73245 l 4.98628,8.44473 4.32573,-4.94473 c 2.37915,-2.7196 4.33498,-5.17964 4.34629,-5.46675 z M 93.711921,402.17262 C 88.417025,397.20784 69,375.64923 69,374.73511 c 0,-0.53777 1.828523,-2.4472 4.063385,-4.24319 l 4.063385,-3.26542 7.685186,8.34806 c 4.226853,4.59143 8.950578,9.64742 10.497168,11.23554 l 2.811985,2.88747 3.439441,-3.33364 c 1.8917,-1.8335 3.43945,-3.82241 3.43945,-4.41979 0,-0.59738 -3.59335,-4.96234 -7.985231,-9.6999 -8.695938,-9.38039 -10.459613,-12.52139 -9.075263,-16.16251 0.489503,-1.28749 4.635639,-5.78749 9.213633,-10 7.243361,-6.66508 8.803731,-7.65911 12.022831,-7.65911 3.47872,0 4.51479,0.87779 17.38355,14.72797 l 13.68435,14.72798 -4.35291,3.86287 -4.35291,3.86287 -10.67731,-11.34085 -10.67731,-11.34084 -3.59171,3.44617 C 104.61627,358.26418 103,360.16907 103,360.60188 c 0,0.4328 3.8376,4.95703 8.52799,10.05383 4.69039,5.0968 8.79137,10.28815 9.11328,11.53632 0.95343,3.69683 -1.40669,7.3057 -9.79698,14.98059 -8.93644,8.17448 -12.604981,9.24513 -17.132369,5 z M 223.72682,363.56979 c -12.52524,-5.39293 -24.0932,-10.78126 -25.70657,-11.97408 -1.61337,-1.19282 -4.19021,-4.30723 -5.72632,-6.92092 -2.66973,-4.54257 -2.80868,-5.4248 -3.15028,-20.00217 -0.21904,-9.34758 0.015,-15.25 0.60479,-15.25 0.52918,0 13.86518,6.29012 29.63556,13.97804 l 28.67342,13.97805 28.62933,-13.97805 c 15.74613,-7.68792 29.00821,-13.97804 29.47129,-13.97804 0.46308,0 0.84196,5.89449 0.84196,13.09887 0,15.305 -0.85006,17.88903 -7.87958,23.95247 -4.45479,3.84256 -48.5226,26.97452 -51.29362,26.92491 -0.72974,-0.0131 -11.57473,-4.43615 -24.09998,-9.82908 z m 111.86391,-4.72043 c -6.12798,-2.24525 -10.59948,-6.24925 -13.18857,-11.80971 -2.32911,-5.00212 -2.38284,-5.74022 -2.39239,-32.86703 -0.007,-20.46898 -0.31585,-27.75 -1.17632,-27.75 -0.6416,0 -16.65983,7.89967 -35.59608,17.55482 -18.93624,9.65515 -34.99838,17.41765 -35.69363,17.25 -0.69525,-0.16765 -28.58271,-14.68841 -61.97213,-32.26836 -53.15341,-27.98594 -60.4892,-32.12355 -58.94951,-33.2494 0.96719,-0.70723 13.48539,-7.42559 27.81822,-14.9297 14.33282,-7.5041 29.30729,-15.41187 33.27659,-17.57282 l 7.2169,-3.92899 9.13774,12.32223 c 11.60825,15.65372 26.46261,37.8425 35.8641,53.57222 4.02694,6.7375 7.6013,12.24193 7.94303,12.23206 0.34173,-0.01 3.27566,-4.54475 6.51985,-10.0775 10.32666,-17.61143 29.33551,-45.70713 44.82661,-66.25517 1.31594,-1.74552 3.3006,-0.84883 34.94943,15.79061 18.45484,9.70267 34.34317,18.2181 35.3074,18.92316 1.5434,1.12856 -0.53324,2.52947 -17.3574,11.70938 l -19.11055,10.42746 -0.003,30.5 c -0.004,36.64591 -0.28173,35.67269 11.23925,39.37488 1.41108,0.45344 1.75,1.73045 1.75,6.59374 v 6.03138 l -3.25,-0.0705 c -1.7875,-0.0388 -5.00917,-0.71501 -7.15927,-1.5028 z m -93.01147,-83.67674 c -14.00725,-23.58603 -30.02871,-46.44724 -53.08668,-75.75 -25.87874,-32.88747 -30.01222,-41.57638 -31.15957,-65.5 -2.12978,-44.408372 25.81166,-83.205555 68.16699,-94.651071 11.15526,-3.014444 31.59809,-3.031225 42.69847,-0.03505 16.89735,4.560874 30.19664,12.589431 42.91623,25.907799 17.05635,17.859298 25.18131,38.855432 25.26102,65.278322 0.0335,11.09359 -0.36238,14.91799 -2.22066,21.45493 -4.10738,14.44866 -9.35071,22.61163 -37.60534,58.54507 -5.83831,7.425 -14.83513,19.57613 -19.99294,27.00252 C 267.57898,251.79152 249,281.1682 249,282.57851 c 0,2.35149 -1.98743,0.0591 -6.42074,-7.40589 z m 12.95075,-111.29983 c 10.91629,-2.84333 18.94703,-9.65798 23.71125,-20.12067 3.33635,-7.32694 3.16612,-20.81572 -0.3581,-28.37513 -4.8768,-10.46069 -12.38578,-16.708667 -23.60056,-19.637253 -14.40413,-3.76144 -30.62344,4.119886 -37.85052,18.392403 -2.66487,5.26278 -2.93103,6.7018 -2.92054,15.79048 0.01,8.40035 0.37866,10.74162 2.30659,14.63613 4.83197,9.76076 13.20725,16.82611 23.11122,19.4965 6.17103,1.66389 8.62209,1.63522 15.60066,-0.18246 z"
    />
  </g>

</svg>
