<svg xmlns="http://www.w3.org/2000/svg" style="display:none">

  
  <symbol id="icono-inicio" viewBox="0 0 24 24">
    <path fill="currentColor" d="M12.74 2.32a1 1 0 0 0-1.48 0l-9 10A1 1 0 0 0 3 14h2v7a1 1 0 0 0 1 1h12a1 1 0 0 0 1-1v-7h2a1 1 0 0 0 1-1 1 1 0 0 0-.26-.68z"/>
  </symbol>

  
  <symbol id="icono-logo" viewBox="0 0 500 500">
    <path fill="currentColor" d="m 252.76226,462.34938 c -3.13259,-1.82507 -3.77564,-4.61645 -6.2313,-27.04931 -2.13059,-19.46333 -2.25493,-22.51055 -1.01627,-24.90586 0.77624,-1.50108 2.07297,-2.98312 2.88163,-3.29343 2.73544,-1.04969 30.07222,-3.82173 34.50371,-3.4988 5.473,0.39883 7.67341,3.14226 8.44973,10.53496 l 0.54756,5.21432 -3.19866,0.48166 C 277.86453,421.46436 278,421.47708 278,418.82836 c 0,-1.35768 -0.60503,-2.70068 -1.34451,-2.98445 -1.54611,-0.5933 -16.52384,1.11372 -17.39233,1.98222 -0.77093,0.77093 2.53748,31.80005 3.49082,32.73996 0.74425,0.73376 15.85954,-0.78658 17.42225,-1.75238 0.45307,-0.28002 0.82377,-1.59899 0.82377,-2.93105 0,-2.57654 0.81474,-2.93252 8.68298,-3.79384 4.89851,-0.53624 5.31702,0.0693 5.31702,7.69308 0,6.04557 -1.82515,9.23676 -5.75124,10.05576 -3.51926,0.73414 -29.7497,3.5947 -32.59414,3.55455 -1.18504,-0.0167 -2.9366,-0.486 -3.89236,-1.04283 z m -47.3286,-2.63873 -5.06634,-1.47916 -1.74301,-6.65444 c -4.75836,-18.1663 -7.93217,-29.1799 -8.30221,-28.80986 -0.2257,0.22569 -2.13024,7.00524 -4.23233,15.06566 -2.10209,8.06042 -4.00718,14.84052 -4.23355,15.06688 C 181.1529,453.60306 169,450.22569 169,449.3269 c 0,-1.30771 13.99296,-54.23057 14.463,-54.70061 0.22771,-0.22771 3.24396,0.43104 6.70278,1.46389 l 6.28876,1.8779 1.72418,5.97727 c 0.9483,3.2875 3.15623,11.27957 4.90651,17.76016 1.75027,6.4806 3.38555,11.57966 3.63395,11.33126 0.32233,-0.32233 8.24524,-29.2566 8.27709,-30.22774 0.027,-0.82413 13.00373,3.32251 13.00373,4.15527 0,0.99615 -12.07241,47.81273 -13.59169,52.70832 -0.63405,2.04311 -2.08592,2.04926 -8.97465,0.038 z m 111.31126,-36.78505 -12.73684,-25.49701 18.98596,-9.50299 c 10.44228,-5.22664 19.20788,-9.50298 19.47912,-9.50298 0.27123,0 1.63047,2.2444 3.02054,4.98756 l 2.52739,4.98756 -13.01055,6.5196 C 327.85475,398.50311 322,401.67664 322,401.96961 c 0,0.51047 3.95484,8.61978 4.51865,9.26541 0.15005,0.17182 4.41666,-1.76876 9.48135,-4.3124 5.06469,-2.54364 9.3313,-4.48422 9.48135,-4.3124 0.89165,1.02103 4.51865,8.91728 4.51865,9.83743 0,0.60759 -3.9375,2.93592 -8.75,5.17406 -4.8125,2.23815 -8.89275,4.18921 -9.06723,4.3357 -0.17448,0.14649 0.84537,2.56063 2.26632,5.36475 l 2.58356,5.09841 12.96735,-6.49795 12.96735,-6.49795 2.58356,5.09841 c 1.42095,2.80412 2.4408,5.22813 2.26632,5.38667 -0.80497,0.73147 -36.88652,18.51287 -37.56582,18.51287 -0.4233,0 -6.50122,-11.47366 -13.50649,-25.49702 z M 132.25,431.14789 c -2.8875,-1.76401 -5.25,-3.52449 -5.25,-3.91219 0,-0.38769 6.57427,-11.54312 14.60949,-24.78984 l 14.60949,-24.08495 4.64051,2.65806 c 2.55228,1.46193 5.16579,3.16332 5.8078,3.78086 0.88077,0.8472 -2.43287,7.07344 -13.5,25.36619 -8.06701,13.33387 -14.89229,24.2312 -15.16729,24.21628 -0.275,-0.0149 -2.8625,-1.4704 -5.75,-3.23441 z m 258.4512,-23.47527 c -1.27814,-2.0625 -8.08443,-13.28441 -15.12509,-24.93757 l -12.8012,-21.18757 2.03606,-2.81243 c 1.11984,-1.54684 4.70479,-5.43334 7.96657,-8.63667 l 5.9305,-5.82424 26.12082,13.32424 c 14.36644,7.32833 26.11197,13.54924 26.10116,13.82424 -0.0108,0.275 -2.00999,2.72121 -4.44263,5.43602 l -4.42298,4.93602 -5.06496,-2.3723 -5.06497,-2.3723 -6.0398,5.93628 c -8.38069,8.23704 -8.54232,8.65544 -5.40915,14.0018 l 2.61302,4.45879 -4.20581,4.98784 c -2.3132,2.74332 -4.57973,4.98785 -5.03673,4.98785 -0.45701,0 -1.87667,-1.6875 -3.15481,-3.75 z m 9.27823,-36.27202 c 0.0113,-0.28711 -4.72404,-2.88168 -10.52301,-5.7657 -11.88085,-5.90874 -11.59954,-6.60253 -3.13529,7.73245 l 4.98628,8.44473 4.32573,-4.94473 c 2.37915,-2.7196 4.33498,-5.17964 4.34629,-5.46675 z M 93.711921,402.17262 C 88.417025,397.20784 69,375.64923 69,374.73511 c 0,-0.53777 1.828523,-2.4472 4.063385,-4.24319 l 4.063385,-3.26542 7.685186,8.34806 c 4.226853,4.59143 8.950578,9.64742 10.497168,11.23554 l 2.811985,2.88747 3.439441,-3.33364 c 1.8917,-1.8335 3.43945,-3.82241 3.43945,-4.41979 0,-0.59738 -3.59335,-4.96234 -7.985231,-9.6999 -8.695938,-9.38039 -10.459613,-12.52139 -9.075263,-16.16251 0.489503,-1.28749 4.635639,-5.78749 9.213633,-10 7.243361,-6.66508 8.803731,-7.65911 12.022831,-7.65911 3.47872,0 4.51479,0.87779 17.38355,14.72797 l 13.68435,14.72798 -4.35291,3.86287 -4.35291,3.86287 -10.67731,-11.34085 -10.67731,-11.34084 -3.59171,3.44617 C 104.61627,358.26418 103,360.16907 103,360.60188 c 0,0.4328 3.8376,4.95703 8.52799,10.05383 4.69039,5.0968 8.79137,10.28815 9.11328,11.53632 0.95343,3.69683 -1.40669,7.3057 -9.79698,14.98059 -8.93644,8.17448 -12.604981,9.24513 -17.132369,5 z M 223.72682,363.56979 c -12.52524,-5.39293 -24.0932,-10.78126 -25.70657,-11.97408 -1.61337,-1.19282 -4.19021,-4.30723 -5.72632,-6.92092 -2.66973,-4.54257 -2.80868,-5.4248 -3.15028,-20.00217 -0.21904,-9.34758 0.015,-15.25 0.60479,-15.25 0.52918,0 13.86518,6.29012 29.63556,13.97804 l 28.67342,13.97805 28.62933,-13.97805 c 15.74613,-7.68792 29.00821,-13.97804 29.47129,-13.97804 0.46308,0 0.84196,5.89449 0.84196,13.09887 0,15.305 -0.85006,17.88903 -7.87958,23.95247 -4.45479,3.84256 -48.5226,26.97452 -51.29362,26.92491 -0.72974,-0.0131 -11.57473,-4.43615 -24.09998,-9.82908 z m 111.86391,-4.72043 c -6.12798,-2.24525 -10.59948,-6.24925 -13.18857,-11.80971 -2.32911,-5.00212 -2.38284,-5.74022 -2.39239,-32.86703 -0.007,-20.46898 -0.31585,-27.75 -1.17632,-27.75 -0.6416,0 -16.65983,7.89967 -35.59608,17.55482 -18.93624,9.65515 -34.99838,17.41765 -35.69363,17.25 -0.69525,-0.16765 -28.58271,-14.68841 -61.97213,-32.26836 -53.15341,-27.98594 -60.4892,-32.12355 -58.94951,-33.2494 0.96719,-0.70723 13.48539,-7.42559 27.81822,-14.9297 14.33282,-7.5041 29.30729,-15.41187 33.27659,-17.57282 l 7.2169,-3.92899 9.13774,12.32223 c 11.60825,15.65372 26.46261,37.8425 35.8641,53.57222 4.02694,6.7375 7.6013,12.24193 7.94303,12.23206 0.34173,-0.01 3.27566,-4.54475 6.51985,-10.0775 10.32666,-17.61143 29.33551,-45.70713 44.82661,-66.25517 1.31594,-1.74552 3.3006,-0.84883 34.94943,15.79061 18.45484,9.70267 34.34317,18.2181 35.3074,18.92316 1.5434,1.12856 -0.53324,2.52947 -17.3574,11.70938 l -19.11055,10.42746 -0.003,30.5 c -0.004,36.64591 -0.28173,35.67269 11.23925,39.37488 1.41108,0.45344 1.75,1.73045 1.75,6.59374 v 6.03138 l -3.25,-0.0705 c -1.7875,-0.0388 -5.00917,-0.71501 -7.15927,-1.5028 z m -93.01147,-83.67674 c -14.00725,-23.58603 -30.02871,-46.44724 -53.08668,-75.75 -25.87874,-32.88747 -30.01222,-41.57638 -31.15957,-65.5 -2.12978,-44.408372 25.81166,-83.205555 68.16699,-94.651071 11.15526,-3.014444 31.59809,-3.031225 42.69847,-0.03505 16.89735,4.560874 30.19664,12.589431 42.91623,25.907799 17.05635,17.859298 25.18131,38.855432 25.26102,65.278322 0.0335,11.09359 -0.36238,14.91799 -2.22066,21.45493 -4.10738,14.44866 -9.35071,22.61163 -37.60534,58.54507 -5.83831,7.425 -14.83513,19.57613 -19.99294,27.00252 C 267.57898,251.79152 249,281.1682 249,282.57851 c 0,2.35149 -1.98743,0.0591 -6.42074,-7.40589 z m 12.95075,-111.29983 c 10.91629,-2.84333 18.94703,-9.65798 23.71125,-20.12067 3.33635,-7.32694 3.16612,-20.81572 -0.3581,-28.37513 -4.8768,-10.46069 -12.38578,-16.708667 -23.60056,-19.637253 -14.40413,-3.76144 -30.62344,4.119886 -37.85052,18.392403 -2.66487,5.26278 -2.93103,6.7018 -2.92054,15.79048 0.01,8.40035 0.37866,10.74162 2.30659,14.63613 4.83197,9.76076 13.20725,16.82611 23.11122,19.4965 6.17103,1.66389 8.62209,1.63522 15.60066,-0.18246 z"/>
  </symbol>

  
  <symbol id="icono-mapa" viewBox="0 0 24 24">
    <path fill="currentColor" d="M12 2C8.13 2 5 5.13 5 9c0 5.25 7 13 7 13s7-7.75 7-13c0-3.87-3.13-7-7-7zm0 9.5c-1.38 0-2.5-1.12-2.5-2.5s1.12-2.5 2.5-2.5 2.5 1.12 2.5 2.5-1.12 2.5-2.5 2.5z"/>
  </symbol>

  
  <symbol id="icono-streetview" viewBox="0 0 24 24">
    <path fill="currentColor" d="m12 17 1-2V9.858c1.721-.447 3-2 3-3.858 0-2.206-1.794-4-4-4S8 3.794 8 6c0 1.858 1.279 3.411 3 3.858V15l1 2z"/>
    <path fill="currentColor" d="m16.267 10.563-.533 1.928C18.325 13.207 20 14.584 20 16c0 1.892-3.285 4-8 4s-8-2.108-8-4c0-1.416 1.675-2.793 4.267-3.51l-.533-1.928C4.197 11.54 2 13.623 2 16c0 3.364 4.393 6 10 6s10-2.636 10-6c0-2.377-2.197-4.46-5.733-5.437z"/>
  </symbol>

  
  <symbol id="icono-perfil" viewBox="0 0 24 24">
    <path fill="currentColor" d="M12 12c2.7 0 4.8-2.1 4.8-4.8S14.7 2.4 12 2.4 7.2 4.5 7.2 7.2 9.3 12 12 12zm0 2.4c-3.2 0-9.6 1.6-9.6 4.8v2.4h19.2v-2.4c0-3.2-6.4-4.8-9.6-4.8z"/>
  </symbol>

  
  <symbol id="icono-edificio" viewBox="0 0 24 24">
    <path fill="currentColor" d="M17 11V3H7v4H3v14h8v-4h2v4h8V11h-4zM7 19H5v-2h2v2zm0-4H5v-2h2v2zm0-4H5v-2h2v2zm4 4H9v-2h2v2zm0-4H9v-2h2v2zm0-4H9V5h2v2zm4 8h-2v-2h2v2zm0-4h-2v-2h2v2zm0-4h-2V5h2v2zm4 8h-2v-2h2v2zm0-4h-2v-2h2v2z"/>
  </symbol>

  
  <symbol id="icono-menu" viewBox="0 0 24 24">
    <path fill="currentColor" d="M3 18h18v-2H3v2zm0-5h18v-2H3v2zm0-7v2h18V6H3z"/>
  </symbol>

  
  <symbol id="icono-cerrar" viewBox="0 0 24 24">
    <path fill="currentColor" d="M19 6.41L17.59 5 12 10.59 6.41 5 5 6.41 10.59 12 5 17.59 6.41 19 12 13.41 17.59 19 19 17.59 13.41 12z"/>
  </symbol>

  
  <symbol id="icono-horario" viewBox="0 0 24 24">
    <path fill="currentColor" d="M19 3h-1V1h-2v2H8V1H6v2H5c-1.1 0-2 .9-2 2v14c0 1.1.9 2 2 2h14c1.1 0 2-.9 2-2V5c0-1.1-.9-2-2-2zm0 16H5V8h14v11zM7 10h5v5H7z"/>
  </symbol>

  
  <symbol id="icono-editar" viewBox="0 0 24 24">
    <path fill="currentColor" d="M3 17.25V21h3.75L17.81 9.94l-3.75-3.75L3 17.25zM20.71 7.04c.39-.39.39-1.02 0-1.41l-2.34-2.34c-.39-.39-1.02-.39-1.41 0l-1.83 1.83 3.75 3.75 1.83-1.83z"/>
  </symbol>

  
  <symbol id="icono-atras" viewBox="0 0 24 24">
    <path fill="currentColor" d="M20 11H7.83l5.59-5.59L12 4l-8 8 8 8 1.41-1.41L7.83 13H20v-2z"/>
  </symbol>

  
  <symbol id="icono-mas" viewBox="0 0 24 24">
    <path fill="currentColor" d="M19 13h-6v6h-2v-6H5v-2h6V5h2v6h6v2z"/>
  </symbol>

  
  <symbol id="icono-menos" viewBox="0 0 24 24">
    <path fill="currentColor" d="M19 13H5v-2h14v2z"/>
  </symbol>

  
  <symbol id="icono-guardar" viewBox="0 0 24 24">
    <path fill="currentColor" d="M17 3H5c-1.1 0-2 .9-2 2v14c0 1.1.9 2 2 2h14c1.1 0 2-.9 2-2V7l-4-4zm-5 16c-1.66 0-3-1.34-3-3s1.34-3 3-3 3 1.34 3 3-1.34 3-3 3zm3-10H5V5h10v4z"/>
  </symbol>

  
  <symbol id="icono-cancelar" viewBox="0 0 24 24">
    <path fill="currentColor" d="M12 2C6.47 2 2 6.47 2 12s4.47 10 10 10 10-4.47 10-10S17.53 2 12 2zm5 13.59L15.59 17 12 13.41 8.41 17 7 15.59 10.59 12 7 8.41 8.41 7 12 10.59 15.59 7 17 8.41 13.41 12 17 15.59z"/>
  </symbol>

  
  <symbol id="icono-sol" viewBox="0 0 24 24">
    <path fill="currentColor" d="M12 7c-2.76 0-5 2.24-5 5s2.24 5 5 5 5-2.24 5-5-2.24-5-5-5zM2 13h2c.55 0 1-.45 1-1s-.45-1-1-1H2c-.55 0-1 .45-1 1s.45 1 1 1zm18 0h2c.55 0 1-.45 1-1s-.45-1-1-1h-2c-.55 0-1 .45-1 1s.45 1 1 1zM11 2v2c0 .55.45 1 1 1s1-.45 1-1V2c0-.55-.45-1-1-1s-1 .45-1 1zm0 18v2c0 .55.45 1 1 1s1-.45 1-1v-2c0-.55-.45-1-1-1s-1 .45-1 1zM5.99 4.58c-.39-.39-1.03-.39-1.41 0-.39.39-.39 1.03 0 1.41l1.06 1.06c.39.39 1.03.39 1.41 0s.39-1.03 0-1.41L5.99 4.58zm12.37 12.37c-.39-.39-1.03-.39-1.41 0-.39.39-.39 1.03 0 1.41l1.06 1.06c.39.39 1.03.39 1.41 0 .39-.39.39-1.03 0-1.41l-1.06-1.06zm1.06-10.96c.39-.39.39-1.03 0-1.41-.39-.39-1.03-.39-1.41 0l-1.06 1.06c-.39.39-.39 1.03 0 1.41s1.03.39 1.41 0l1.06-1.06zM7.05 18.36c.39-.39.39-1.03 0-1.41-.39-.39-1.03-.39-1.41 0l-1.06 1.06c-.39.39-.39 1.03 0 1.41s1.03.39 1.41 0l1.06-1.06z"/>
  </symbol>

  
  <symbol id="icono-luna" viewBox="0 0 24 24">
    <path fill="currentColor" d="M12 3c-4.97 0-9 4.03-9 9s4.03 9 9 9 9-4.03 9-9c0-.46-.04-.92-.1-1.36-.98 1.37-2.58 2.26-4.4 2.26-2.98 0-5.4-2.42-5.4-5.4 0-1.81.89-3.42 2.26-4.4-.44-.06-.9-.1-1.36-.1z"/>
  </symbol>

  
      <symbol id="icono-vscode" viewBox="0 0 24 24">
        <path fill="currentColor" d="m21.29 4.1-4.12-2a1.36 1.36 0 0 0-.48-.1h-.08a1.18 1.18 0 0 0-.72.24l-.14.12-7.88 7.19L4.44 7a.83.83 0 0 0-.54-.17.88.88 0 0 0-.53.17l-1.1 1a.8.8 0 0 0-.27.61.84.84 0 0 0 .27.62l3 2.71-3 2.72a.84.84 0 0 0 0 1.23l1.1 1a.89.89 0 0 0 .6.22.93.93 0 0 0 .47-.17l3.43-2.61 7.88 7.19a1.2 1.2 0 0 0 .76.36h.17a1 1 0 0 0 .49-.12l4.12-2a1.25 1.25 0 0 0 .71-1.1V5.23a1.26 1.26 0 0 0-.71-1.13zM17 16.47l-6-4.53 6-4.53z"/>
      </symbol>
      
      <symbol id="icono-github" viewBox="0 0 24 24">
        <path fill="currentColor" d="M12.026 2c-5.509 0-9.974 4.465-9.974 9.974 0 4.406 2.857 8.145 6.821 9.465.499.09.679-.217.679-.481 0-.237-.008-.865-.011-1.696-2.775.602-3.361-1.338-3.361-1.338-.452-1.152-1.107-1.459-1.107-1.459-.905-.619.069-.605.069-.605 1.002.07 1.527 1.028 1.527 1.028.89 1.524 2.336 1.084 2.902.829.091-.645.351-1.085.635-1.334-2.214-.251-4.542-1.107-4.542-4.93 0-1.087.389-1.979 1.024-2.675-.101-.253-.446-1.268.099-2.64 0 0 .837-.269 2.742 1.021a9.582 9.582 0 0 1 2.496-.336 9.554 9.554 0 0 1 2.496.336c1.906-1.291 2.742-1.021 2.742-1.021.545 1.372.203 2.387.099 2.64.64.696 1.024 1.587 1.024 2.675 0 3.833-2.33 4.675-4.552 4.922.355.308.675.916.675 1.846 0 1.334-.012 2.41-.012 2.737 0 .267.178.577.687.479C19.146 20.115 22 16.379 22 11.974 22 6.465 17.535 2 12.026 2z"/>
      </symbol>
      
      <symbol id="icono-git" viewBox="0 0 24 24">
        <path fill="currentColor" d="m21.62 11.108-8.731-8.729a1.292 1.292 0 0 0-1.823 0L9.257 4.19l2.299 2.3a1.532 1.532 0 0 1 1.939 1.95l2.214 2.217a1.53 1.53 0 0 1 1.583 2.531c-.599.6-1.566.6-2.166 0a1.536 1.536 0 0 1-.337-1.662l-2.074-2.063V14.9c.146.071.286.169.407.29a1.537 1.537 0 0 1 0 2.166 1.536 1.536 0 0 1-2.174 0 1.528 1.528 0 0 1 0-2.164c.152-.15.322-.264.504-.339v-5.49a1.529 1.529 0 0 1-.83-2.008l-2.26-2.271-5.987 5.982c-.5.504-.5 1.32 0 1.824l8.731 8.729a1.286 1.286 0 0 0 1.821 0l8.69-8.689a1.284 1.284 0 0 0 .003-1.822"/>
      </symbol>

    
      <symbol id="icono-angular" viewBox="0 0 24 24">
        <path fill="currentColor" d="M10.483 12.482h3.034L12 8.831z"/>
        <path fill="currentColor" d="M12 3.074 3.689 6.038l1.268 10.987 7.043 3.9 7.043-3.9 1.268-10.987L12 3.074zm5.187 13.621H15.25l-1.045-2.606h-4.41L8.75 16.695H6.813L12 5.047l5.187 11.648z"/>
      </symbol>
      
      <symbol id="icono-scss" viewBox="0 0 24 24">
        <path fill="currentColor" d="M12 2c5.522 0 10 4.478 10 10s-4.478 10-10 10S2 17.522 2 12 6.478 2 12 2zm-1.987 13.332c.146.537.13 1.039-.021 1.493l-.054.15a2.803 2.803 0 0 1-.527.821c-.582.633-1.394.872-1.742.671-.375-.219-.188-1.112.487-1.825.726-.765 1.766-1.258 1.766-1.258v-.002l.091-.05zm8.258-9.051c-.452-1.777-3.397-2.362-6.185-1.371-1.656.589-3.453 1.515-4.743 2.723-1.536 1.434-1.78 2.684-1.68 3.206.355 1.843 2.881 3.048 3.92 3.942v.005c-.307.149-2.548 1.274-3.072 2.438-.563 1.225.088 2.101.513 2.212 1.313.363 2.662-.3 3.388-1.374.699-1.051.638-2.4.337-3.063.413-.112.899-.162 1.524-.086 1.751.199 2.101 1.3 2.024 1.75-.074.449-.436.711-.561.786-.126.076-.163.101-.151.151.013.074.076.074.175.063.138-.025.914-.375.951-1.227.037-1.074-.988-2.273-2.813-2.25-.75.014-1.226.076-1.563.214a.295.295 0 0 0-.088-.088c-1.125-1.213-3.213-2.063-3.125-3.675.025-.588.237-2.137 4-4.012 3.088-1.538 5.551-1.112 5.977-.175.61 1.336-1.314 3.825-4.526 4.187-1.225.138-1.862-.337-2.026-.513-.174-.188-.198-.2-.261-.161-.101.05-.038.212 0 .313.1.249.487.688 1.163.912.587.188 2.024.299 3.75-.375 1.937-.749 3.449-2.838 3.012-4.588l.06.056z"/>
      </symbol>
      
      <symbol id="icono-typescript" viewBox="0 0 24 24">
        <path fill="currentColor" d="M19.24 3H4.76A1.76 1.76 0 0 0 3 4.76v14.48A1.76 1.76 0 0 0 4.76 21h14.48A1.76 1.76 0 0 0 21 19.24V4.76A1.76 1.76 0 0 0 19.24 3zm-5.8 10h-2.25v6.44H9.4V13H7.15v-1.46h6.29zm5.8 5.28a1.71 1.71 0 0 1-.67.74 3 3 0 0 1-1 .39 5.81 5.81 0 0 1-1.2.12 7 7 0 0 1-1.23-.11 4.52 4.52 0 0 1-1-.33v-1.71l-.06-.06h.06v.07a3.41 3.41 0 0 0 1 .54 3.06 3.06 0 0 0 1.13.2 2.58 2.58 0 0 0 .6-.06 1.47 1.47 0 0 0 .42-.17.75.75 0 0 0 .25-.25.69.69 0 0 0-.06-.74 1.24 1.24 0 0 0-.35-.33 3.12 3.12 0 0 0-.53-.3l-.67-.28a3.57 3.57 0 0 1-1.37-1 2 2 0 0 1-.46-1.33 2.16 2.16 0 0 1 .24-1.06 2.09 2.09 0 0 1 .66-.71 2.88 2.88 0 0 1 1-.42 5.11 5.11 0 0 1 1.19-.13 7 7 0 0 1 1.09.07 4.53 4.53 0 0 1 .88.23v1.65a2.42 2.42 0 0 0-.42-.24 3.58 3.58 0 0 0-.49-.17 3 3 0 0 0-.49-.1 2.45 2.45 0 0 0-.46 0 2.29 2.29 0 0 0-.56.06 1.54 1.54 0 0 0-.43.16.78.78 0 0 0-.26.25.63.63 0 0 0-.09.33.62.62 0 0 0 .1.35 1.19 1.19 0 0 0 .3.29 2.15 2.15 0 0 0 .46.28l.63.28a6.56 6.56 0 0 1 .84.42 2.65 2.65 0 0 1 .64.49 1.79 1.79 0 0 1 .42.63 2.48 2.48 0 0 1 .14.85 2.68 2.68 0 0 1-.25 1.08z"/>
      </symbol>

  
      <symbol id="icono-python" viewBox="0 0 24 24">
        <path fill="currentColor" d="M9.585 11.692h4.328s2.432.039 2.432-2.35V5.391S16.714 3 11.936 3C7.362 3 7.647 4.983 7.647 4.983l.006 2.055h4.363v.617H5.92s-2.927-.332-2.927 4.282 2.555 4.45 2.555 4.45h1.524v-2.141s-.083-2.554 2.513-2.554zm-.056-5.74a.784.784 0 1 1 0-1.57.784.784 0 1 1 0 1.57z"/>
        <path fill="currentColor" d="M18.452 7.532h-1.524v2.141s.083 2.554-2.513 2.554h-4.328s-2.432-.04-2.432 2.35v3.951s-.369 2.391 4.409 2.391c4.573 0 4.288-1.983 4.288-1.983l-.006-2.054h-4.363v-.617h6.097s2.927.332 2.927-4.282-2.555-4.451-2.555-4.451zm-3.981 10.436a.784.784 0 1 1 0 1.57.784.784 0 1 1 0-1.57z"/>
      </symbol>

      <symbol id="icono-js" viewBox="0 0 24 24">
        <path fill="currentColor" d="M3 3h18v18H3V3zm16.525 13.707c-.131-.821-.666-1.511-2.252-2.155-.552-.259-1.165-.438-1.349-.854-.068-.248-.078-.382-.034-.529.113-.484.687-.629 1.137-.495.293.09.563.315.732.676.775-.507.775-.507 1.316-.844-.203-.314-.304-.451-.439-.586-.473-.528-1.103-.798-2.126-.775l-.528.067c-.507.124-.991.395-1.283.754-.855.968-.608 2.655.427 3.354 1.023.765 2.521.933 2.712 1.653.18.878-.652 1.159-1.475 1.058-.607-.136-.945-.439-1.316-1.002l-1.372.788c.157.359.337.517.607.832 1.305 1.316 4.568 1.249 5.153-.754.021-.067.18-.528.056-1.237l.034.049zm-6.737-5.434h-1.686c0 1.453-.007 2.898-.007 4.354 0 .924.047 1.772-.104 2.033-.247.517-.886.451-1.175.359-.297-.146-.448-.349-.623-.641-.047-.078-.082-.146-.095-.146l-1.368.844c.229.473.563.879.994 1.137.641.383 1.502.507 2.404.305.588-.17 1.095-.519 1.358-1.059.384-.697.302-1.553.299-2.509.008-1.541 0-3.083 0-4.635l.003-.042z"/>
      </symbol>

      <symbol id="icono-xampp" viewBox="-1 0 258 258">
        <path fill="currentColor" d="M128.775254,164.113293 C128.047679,168.567424 127.537291,172.592612 125.937351,176.30288 C118.44623,193.686843 105.681098,204.28011 86.5433558,206.388628 C63.921581,208.880842 43.0282481,194.919376 36.7461311,173.235122 C34.4692936,165.376594 34.6973393,157.366035 35.5226477,149.368145 C36.4040625,140.82186 38.921615,132.717187 42.8526891,125.072225 C43.4155639,123.979054 43.4047046,123.153745 42.7006586,122.094962 C36.6646862,113.01657 34.3226927,102.987987 35.1733395,92.1630542 C35.6276211,86.3768462 37.0320932,80.8422124 39.6564291,75.6586967 C47.3448281,60.4737467 64.225642,47.5873529 86.8347475,49.726639 C106.714544,51.6071114 125.128332,68.7557886 128.002432,88.041942 C128.147223,89.0102314 128.418706,89.960422 128.737246,91.3884226 C129.213246,88.8020944 129.557125,86.6682379 130.002357,84.5542902 C133.705385,67.0327764 150.855872,48.6986234 175.166271,48.4723875 C199.80607,48.2443418 218.053348,67.5685028 221.495753,85.51715 C222.950902,93.1023854 222.697518,100.680381 221.497563,108.254757 C220.297608,115.821894 218.075067,123.095829 214.82632,130.029505 C214.109605,131.55886 214.18381,132.659271 215.101423,134.080032 C220.408011,142.304157 222.750005,151.331873 222.449563,161.136029 C221.821533,181.593179 207.353298,199.938192 187.448163,204.736201 C159.657352,211.432783 138.354984,194.812592 131.186023,174.70475 C130.016836,171.432475 129.463011,168.015409 128.775254,164.113293 L128.775254,164.113293 Z M179.263855,128.172561 C179.560676,127.016044 180.45657,126.322857 181.10089,125.466781 C188.068954,116.2074 191.733975,105.863897 190.915906,94.2172757 C190.320453,85.7162375 183.328861,79.7291321 174.86583,80.0458622 C166.39737,80.3625924 160.015709,86.8944738 159.896257,95.3683637 C159.887207,96.0615503 159.928835,96.7565468 159.885397,97.4461137 C159.302614,106.477449 154.319996,111.423869 146.769148,111.975885 C145.390014,112.077238 144.007261,112.200311 142.626317,112.20393 C132.82578,112.225649 123.027053,112.222029 113.226516,112.21298 C108.946134,112.20936 104.70195,112.674501 100.626085,113.932372 C81.5987451,119.803645 70.5041392,132.814921 66.830069,152.207858 C66.1024946,156.044818 65.4473155,160.026569 66.7051869,163.968502 C68.509644,169.620778 71.8742235,173.825145 77.8305608,175.231427 C84.0040846,176.688386 89.3812582,175.075777 93.652591,170.22709 C96.4144782,167.092367 97.2850337,163.36762 97.4913608,159.279085 C98.0252774,148.763643 103.751759,143.507732 113.300722,143.587367 C127.949945,143.708629 142.600979,143.612705 157.252012,143.623565 C159.852819,143.625375 159.876348,143.659762 159.889017,146.231612 C159.914356,150.982564 159.767755,155.738947 159.950553,160.48447 C160.249185,168.230785 167.065218,174.670362 174.967184,174.896598 C183.115294,175.130074 190.37837,169.103151 190.908667,161.235573 C191.366568,154.426779 191.33761,147.574548 190.890568,140.760324 C190.544879,135.484504 187.690688,131.725369 182.85467,129.542646 C181.694533,129.021398 180.474669,128.630463 179.263855,128.172561 L179.263855,128.172561 Z M87.4320102,112.189451 C90.583023,112.189451 93.1548721,112.160493 95.7249114,112.202121 C96.9990716,112.222029 97.4714521,111.673634 97.4605928,110.424812 C97.4189654,105.482011 97.6741594,100.522921 97.3592391,95.5982193 C96.9429651,89.1007258 93.4878913,84.4040696 87.4392497,82.0349278 C81.2367677,79.6060598 75.5609628,80.992433 70.7611431,85.5732564 C65.9396048,90.1757985 65.2970949,95.8045464 66.9839094,101.965401 C68.5331725,107.626727 72.1945734,110.842896 77.9518233,111.814805 C81.296494,112.37768 84.6592636,112.108006 87.4320102,112.189451 L87.4320102,112.189451 Z" />
      
      </symbol>
 

</svg>